<svg width="24" height="25" viewBox="0 0 24 25" fill="none" xmlns="http://www.w3.org/2000/svg">
<path d="M23.498 6.68604C23.3624 6.17532 23.095 5.70918 22.7226 5.33431C22.3502 4.95943 21.8858 4.68899 21.376 4.55004C19.505 4.04504 12 4.04504 12 4.04504C12 4.04504 4.495 4.04504 2.623 4.55004C2.11341 4.68923 1.64929 4.95978 1.27708 5.33463C0.904861 5.70947 0.637591 6.17548 0.502 6.68604C0 8.57004 0 12.5 0 12.5C0 12.5 0 16.43 0.502 18.314C0.637586 18.8248 0.904975 19.2909 1.27739 19.6658C1.64981 20.0407 2.11418 20.3111 2.624 20.45C4.495 20.955 12 20.955 12 20.955C12 20.955 19.505 20.955 21.377 20.45C21.8869 20.3112 22.3513 20.0408 22.7237 19.6659C23.0961 19.291 23.3635 18.8248 23.499 18.314C24 16.43 24 12.5 24 12.5C24 12.5 24 8.57004 23.498 6.68604ZM9.545 16.068V8.93204L15.818 12.5L9.545 16.068Z" fill="currentColor"/>
</svg>
