<svg width="21" height="20" viewBox="0 0 21 20" fill="none" xmlns="http://www.w3.org/2000/svg">
<g clip-path="url(#clip0_2_112)">
<path d="M7.40497 8.81502L7.83164 1.60086C7.83504 1.54441 7.8571 1.49069 7.89436 1.44815C7.93162 1.40561 7.98196 1.37666 8.03748 1.36586L14.9808 0.00502343C15.0237 -0.00339767 15.068 -0.000657106 15.1095 0.0129822C15.1511 0.0266214 15.1884 0.0507016 15.2179 0.0829123C15.2474 0.115123 15.2682 0.154383 15.2782 0.196925C15.2882 0.239468 15.2871 0.283865 15.275 0.325857L13.9766 4.82836C13.9646 4.87027 13.9635 4.91457 13.9735 4.95703C13.9834 4.99949 14.0041 5.03868 14.0335 5.07086C14.0629 5.10305 14.1001 5.12715 14.1415 5.14086C14.1829 5.15458 14.2272 5.15744 14.27 5.14919L16.26 4.76586C16.3068 4.7567 16.3553 4.76086 16.3998 4.77787C16.4444 4.79488 16.4833 4.82406 16.5121 4.86208C16.541 4.9001 16.5585 4.94545 16.5629 4.99296C16.5672 5.04047 16.5581 5.08825 16.5366 5.13086L10.8783 16.4225L10.7758 16.5809C10.7538 16.6167 10.7229 16.6463 10.6861 16.6667C10.6493 16.6871 10.6079 16.6977 10.5658 16.6975C10.4183 16.6975 10.2741 16.5709 10.3116 16.39L11.2241 11.9725C11.2331 11.9293 11.2307 11.8844 11.2171 11.8424C11.2035 11.8003 11.1792 11.7625 11.1466 11.7327C11.114 11.7029 11.0742 11.682 11.0311 11.6722C10.988 11.6624 10.9431 11.6639 10.9008 11.6767L9.70664 12.0392C9.66436 12.0521 9.61946 12.0537 9.57634 12.044C9.53323 12.0343 9.49337 12.0136 9.46068 11.9839C9.42799 11.9541 9.4036 11.9164 9.38989 11.8744C9.37618 11.8323 9.37362 11.7875 9.38247 11.7442L9.95747 8.93169C9.96619 8.8897 9.96418 8.84619 9.95162 8.80518C9.93906 8.76417 9.91636 8.72699 9.88562 8.69709C9.85489 8.66718 9.8171 8.64551 9.77577 8.63408C9.73443 8.62265 9.69088 8.62182 9.64914 8.63169L7.71581 9.07836C7.67722 9.08722 7.6371 9.08698 7.59863 9.07765C7.56015 9.06832 7.52438 9.05016 7.49414 9.02461C7.4639 8.99906 7.44002 8.96682 7.4244 8.93044C7.40878 8.89406 7.40184 8.85455 7.40414 8.81502H7.40497ZM19.885 2.21002L14.9033 3.11669L14.45 4.68919L16.1808 4.35586C16.3149 4.32912 16.454 4.34428 16.5793 4.39929C16.7045 4.4543 16.8098 4.54649 16.8808 4.66336C16.9411 4.76055 16.9754 4.87163 16.9804 4.9859C16.9853 5.10017 16.9608 5.2138 16.9091 5.31586L11.25 16.6084L11.2391 16.6292L11.2266 16.6484L11.125 16.8067C11.0649 16.9008 10.9821 16.9784 10.8843 17.0323C10.7865 17.0861 10.6767 17.1146 10.565 17.115C10.4638 17.1145 10.364 17.0916 10.2727 17.0481C10.1814 17.0046 10.1008 16.9415 10.0366 16.8634C9.97423 16.7861 9.92987 16.6959 9.9068 16.5993C9.88374 16.5027 9.88254 16.4021 9.90331 16.305L10.7608 12.1542L9.82747 12.4375C9.69981 12.476 9.56361 12.4758 9.43607 12.4369C9.30853 12.3981 9.19535 12.3223 9.11081 12.2192C9.04778 12.1422 9.00273 12.0522 8.97894 11.9556C8.95515 11.859 8.95323 11.7583 8.97331 11.6609L9.49831 9.09419L7.80914 9.48419C7.69479 9.51038 7.57559 9.50624 7.46333 9.47219C7.35107 9.43813 7.24966 9.37533 7.16914 9.29002C7.10672 9.22326 7.05851 9.14453 7.02742 9.05858C6.99634 8.97263 6.98303 8.88127 6.98831 8.79002L7.31248 3.31502L1.11247 2.20669C1.01695 2.18945 0.918487 2.19983 0.828656 2.23661C0.738825 2.27339 0.661356 2.33505 0.60535 2.41433C0.549345 2.49361 0.517128 2.58723 0.512486 2.68419C0.507843 2.78115 0.530967 2.87742 0.579142 2.96169L10.15 19.7425C10.1947 19.8211 10.2595 19.8863 10.3377 19.9316C10.4159 19.9769 10.5047 20.0006 10.5951 20.0002C10.6855 19.9999 10.7742 19.9755 10.852 19.9297C10.9299 19.8838 10.9942 19.8181 11.0383 19.7392L20.4216 2.96002C20.4687 2.8756 20.4908 2.77955 20.4853 2.68307C20.4799 2.58658 20.4471 2.49363 20.3909 2.41503C20.3346 2.33644 20.2572 2.27544 20.1677 2.23915C20.0781 2.20285 19.9801 2.19275 19.885 2.21002Z" fill="black"/>
</g>
<defs>
<clipPath id="clip0_2_112">
<rect width="20" height="20" fill="white" transform="translate(0.5)"/>
</clipPath>
</defs>
</svg>
