<svg width="21" height="20" viewBox="0 0 21 20" fill="none" xmlns="http://www.w3.org/2000/svg">
<g clip-path="url(#clip0_2_108)">
<path d="M10.501 4C7.83431 4 6.16764 5.33333 5.50098 8C6.50098 6.66667 7.66764 6.16667 9.00098 6.5C9.76181 6.69 10.3051 7.24167 10.9076 7.85333C11.8885 8.84833 13.0226 10 15.501 10C18.1676 10 19.8343 8.66667 20.501 6C19.501 7.33333 18.3343 7.83333 17.001 7.5C16.2401 7.31 15.6968 6.75833 15.0943 6.14667C14.1143 5.15167 12.9801 4 10.501 4ZM5.50098 10C2.83431 10 1.16764 11.3333 0.500977 14C1.50098 12.6667 2.66764 12.1667 4.00098 12.5C4.76181 12.69 5.30514 13.2417 5.90764 13.8533C6.88848 14.8483 8.02264 16 10.501 16C13.1676 16 14.8343 14.6667 15.501 12C14.501 13.3333 13.3343 13.8333 12.001 13.5C11.2401 13.31 10.6968 12.7583 10.0943 12.1467C9.11431 11.1517 7.98014 10 5.50098 10Z" fill="black"/>
</g>
<defs>
<clipPath id="clip0_2_108">
<rect width="20" height="20" fill="white" transform="translate(0.5)"/>
</clipPath>
</defs>
</svg>
