<svg width="64" height="64" viewBox="0 0 64 64" fill="none" xmlns="http://www.w3.org/2000/svg">
<path d="M13.3333 13.3253V21.3253H50.6667V13.3253H13.3333ZM10.6667 7.992H53.3333C54.0406 7.992 54.7189 8.27296 55.219 8.77305C55.7191 9.27315 56 9.95143 56 10.6587V23.992C56 24.6992 55.7191 25.3775 55.219 25.8776C54.7189 26.3777 54.0406 26.6587 53.3333 26.6587H10.6667C9.95942 26.6587 9.28115 26.3777 8.78105 25.8776C8.28095 25.3775 8 24.6992 8 23.992V10.6587C8 9.95143 8.28095 9.27315 8.78105 8.77305C9.28115 8.27296 9.95942 7.992 10.6667 7.992ZM16 31.992H32C32.7072 31.992 33.3855 32.273 33.8856 32.7731C34.3857 33.2732 34.6667 33.9514 34.6667 34.6587V42.6587H37.3333V58.6587H26.6667V42.6587H29.3333V37.3253H13.3333C12.6261 37.3253 11.9478 37.0444 11.4477 36.5443C10.9476 36.0442 10.6667 35.3659 10.6667 34.6587V29.3253H16V31.992ZM47.2853 36.6107L52 31.8933L56.7147 36.608C57.6468 37.5404 58.2816 38.7283 58.5387 40.0215C58.7958 41.3146 58.6637 42.655 58.159 43.8731C57.6544 45.0911 56.7999 46.1322 55.7036 46.8647C54.6073 47.5971 53.3185 47.9881 52 47.9881C50.6815 47.9881 49.3927 47.5971 48.2964 46.8647C47.2001 46.1322 46.3456 45.0911 45.841 43.8731C45.3363 42.655 45.2042 41.3146 45.4613 40.0215C45.7184 38.7283 46.3532 37.5404 47.2853 36.608" fill="currentColor"/>
</svg>
