<svg width="64" height="64" viewBox="0 0 64 64" fill="none" xmlns="http://www.w3.org/2000/svg">
<path d="M45.3333 40.6533V58.9787C45.3334 59.2146 45.2708 59.4463 45.1521 59.6501C45.0333 59.854 44.8626 60.0226 44.6574 60.139C44.4521 60.2553 44.2197 60.315 43.9838 60.3122C43.7479 60.3093 43.517 60.2439 43.3147 60.1227L32 53.3333L20.6853 60.1227C20.4828 60.244 20.2516 60.3094 20.0155 60.3122C19.7794 60.3149 19.5468 60.2549 19.3414 60.1383C19.1361 60.0217 18.9655 59.8526 18.8469 59.6484C18.7283 59.4442 18.6661 59.2121 18.6667 58.976V40.656C15.2164 37.8936 12.7093 34.1277 11.4919 29.8788C10.2745 25.6299 10.4068 21.1077 11.8706 16.9373C13.3345 12.7668 16.0575 9.154 19.6634 6.59808C23.2693 4.04216 27.5801 2.66934 32 2.66934C36.4199 2.66934 40.7306 4.04216 44.3366 6.59808C47.9425 9.154 50.6655 12.7668 52.1293 16.9373C53.5932 21.1077 53.7255 25.6299 52.5081 29.8788C51.2907 34.1277 48.7836 37.8936 45.3333 40.656M24 43.7867V51.9173L32 47.1173L40 51.9173V43.784C37.4581 44.8111 34.7416 45.3372 32 45.3333C29.2584 45.3372 26.5419 44.8138 24 43.7867ZM32 40C36.2435 40 40.3131 38.3143 43.3137 35.3137C46.3143 32.3131 48 28.2435 48 24C48 19.7565 46.3143 15.6869 43.3137 12.6863C40.3131 9.68571 36.2435 8 32 8C27.7565 8 23.6869 9.68571 20.6863 12.6863C17.6857 15.6869 16 19.7565 16 24C16 28.2435 17.6857 32.3131 20.6863 35.3137C23.6869 38.3143 27.7565 40 32 40Z" fill="currentColor"/>
</svg>
