<svg width="21" height="20" viewBox="0 0 21 20" fill="none" xmlns="http://www.w3.org/2000/svg">
<g clip-path="url(#clip0_2_132)">
<path d="M12.3583 10.0034C12.3583 10.4974 12.1621 10.9712 11.8129 11.3206C11.4636 11.6701 10.9899 11.8665 10.4958 11.8667C10.0016 11.8667 9.5277 11.6704 9.17826 11.3209C8.82881 10.9715 8.6325 10.4975 8.6325 10.0034C8.6325 9.50931 8.8287 9.03549 9.17796 8.68607C9.52723 8.33665 10.001 8.14024 10.495 8.14002C10.9892 8.14002 11.4631 8.33633 11.8126 8.68578C12.162 9.03522 12.3583 9.50917 12.3583 10.0034ZM14.565 1.09502C13.4433 1.09502 11.9758 1.89502 10.4917 3.28002C9.00833 1.90252 7.54 1.11169 6.41917 1.11169C6.0775 1.11169 5.76667 1.18919 5.4975 1.34335C4.35167 2.00419 4.095 4.06335 4.68667 6.64752C2.15 7.43085 0.5 8.68335 0.5 10.0034C0.5 11.3284 2.15833 12.5842 4.7025 13.3617C4.11583 15.9559 4.3775 18.0184 5.52583 18.6784C5.7925 18.8342 6.10083 18.9075 6.44417 18.9075C7.565 18.9075 9.03333 18.1075 10.5175 16.7209C12.0008 18.0992 13.4692 18.89 14.59 18.89C14.9317 18.89 15.2425 18.815 15.5117 18.6609C16.6567 18.0009 16.9142 15.9417 16.3225 13.3567C18.85 12.58 20.5 11.325 20.5 10.0034C20.5 8.67835 18.8417 7.42252 16.2975 6.64335C16.8842 4.05169 16.6225 1.98752 15.4742 1.32669C15.1966 1.17057 14.8835 1.09064 14.565 1.09502ZM14.5608 2.00335V2.00835C14.7483 2.00835 14.8992 2.04502 15.0258 2.11419C15.5808 2.43252 15.8217 3.64335 15.6342 5.20085C15.5892 5.58419 15.5158 5.98835 15.4258 6.40085C14.5737 6.19467 13.7087 6.046 12.8367 5.95585C12.3173 5.23919 11.7508 4.55796 11.1408 3.91669C12.4675 2.68335 13.7133 2.00669 14.5617 2.00419L14.5608 2.00335ZM6.41917 2.02002C7.2625 2.02002 8.51417 2.69335 9.84417 3.92002C9.2725 4.52002 8.7025 5.20085 8.16083 5.95502C7.28676 6.04412 6.41994 6.19392 5.56667 6.40335C5.4772 6.01253 5.40656 5.61763 5.355 5.22002C5.16333 3.66335 5.4 2.45335 5.95 2.13085C6.10833 2.05585 6.28333 2.02419 6.41917 2.02002ZM10.4875 4.56169C10.8667 4.95169 11.2458 5.38835 11.6208 5.86502C11.2542 5.84835 10.8792 5.83669 10.5 5.83669C10.1167 5.83669 9.7375 5.84502 9.36667 5.86502C9.73333 5.38835 10.1125 4.95252 10.4875 4.56169ZM10.5 6.75002C11.1167 6.75002 11.7308 6.77835 12.335 6.82752C12.6733 7.31252 13.0033 7.83002 13.3208 8.37752C13.6308 8.91085 13.9125 9.45252 14.1692 9.99919C13.9125 10.545 13.6308 11.0909 13.325 11.6242C13.0083 12.1742 12.6808 12.6975 12.3417 13.1825C11.1185 13.2895 9.8884 13.2909 8.665 13.1867C8.31514 12.6838 7.98625 12.1667 7.67917 11.6367C7.36917 11.1034 7.0875 10.5617 6.83083 10.015C7.08834 9.46019 7.37 8.9169 7.675 8.38669C7.99167 7.83669 8.31917 7.31502 8.65833 6.83002C9.27073 6.7759 9.88521 6.74865 10.5 6.74835V6.75002ZM7.47083 6.96169C7.27083 7.27585 7.07083 7.59752 6.88417 7.92835C6.69667 8.25335 6.52167 8.58002 6.355 8.90669C6.13417 8.36002 5.94667 7.81502 5.79167 7.28419C6.325 7.15919 6.8875 7.04752 7.47083 6.96169ZM13.5208 6.96169C14.1 7.04752 14.6583 7.15335 15.1925 7.28419C15.0425 7.81085 14.855 8.35252 14.6425 8.89502C14.3025 8.23169 13.9283 7.58638 13.5217 6.96169H13.5208ZM16.0733 7.52419C16.4767 7.64919 16.86 7.78835 17.2192 7.93919C18.6625 8.55585 19.5958 9.36252 19.5958 10.0025C19.5917 10.6425 18.6583 11.4525 17.215 12.065C16.865 12.215 16.4817 12.35 16.0858 12.4759C15.8355 11.6287 15.5293 10.7991 15.1692 9.99252C15.5442 9.14502 15.8442 8.31752 16.0733 7.52252V7.52419ZM4.91083 7.52752C5.1425 8.32752 5.44833 9.15835 5.8275 10.0109C5.46997 10.8126 5.1676 11.6379 4.9225 12.4809C4.51917 12.3559 4.13583 12.2159 3.78083 12.0642C2.3375 11.45 1.40417 10.6425 1.40417 10.0025C1.40417 9.36252 2.3375 8.55085 3.78083 7.93919C4.13083 7.78919 4.51417 7.65419 4.91083 7.52752ZM14.6425 11.0942C14.8633 11.6417 15.0508 12.1875 15.2058 12.7175C14.6725 12.8484 14.1092 12.9592 13.5258 13.0425C13.932 12.413 14.3042 11.7626 14.6425 11.0942ZM6.355 11.1109C6.52167 11.4375 6.69667 11.7634 6.88833 12.09C7.08 12.415 7.27583 12.7334 7.47583 13.0425C6.91393 12.9612 6.35611 12.8539 5.80417 12.7209C5.95417 12.1959 6.1425 11.6525 6.35417 11.11L6.355 11.1109ZM15.4333 13.6C15.5267 14.0109 15.6 14.4067 15.645 14.7859C15.8367 16.3425 15.6 17.5525 15.05 17.8759C14.9275 17.9509 14.7683 17.9825 14.5808 17.9825C13.7375 17.9825 12.4858 17.31 11.1558 16.0825C11.7275 15.4825 12.2975 14.8025 12.8392 14.0492C13.7617 13.9509 14.6342 13.8 15.4333 13.6ZM5.575 13.6084C6.375 13.8034 7.24667 13.9542 8.16417 14.0517C8.71417 14.8059 9.285 15.4909 9.86 16.09C8.53083 17.3259 7.28333 18.0025 6.435 18.0025C6.27474 18.0038 6.11658 17.966 5.97417 17.8925C5.41917 17.5759 5.17833 16.3642 5.36583 14.8067C5.41083 14.4234 5.485 14.02 5.575 13.6084ZM9.375 14.1417C9.74167 14.1584 10.1167 14.17 10.4958 14.17C10.8792 14.17 11.2583 14.1617 11.6292 14.1417C11.2625 14.6184 10.8833 15.0542 10.5083 15.4459C10.1292 15.0542 9.75 14.6184 9.375 14.1417Z" fill="black"/>
</g>
<defs>
<clipPath id="clip0_2_132">
<rect width="20" height="20" fill="white" transform="translate(0.5)"/>
</clipPath>
</defs>
</svg>
