<svg width="64" height="64" viewBox="0 0 64 64" fill="none" xmlns="http://www.w3.org/2000/svg">
<path d="M53.3333 34.6667C53.3333 40.56 50.9467 45.8933 47.0853 49.752L50.856 53.5227C53.3358 51.0491 55.3024 48.1099 56.6428 44.874C57.9832 41.6381 58.671 38.1692 58.6667 34.6667C58.6667 19.9387 46.728 8 32 8C17.272 8 5.33333 19.9387 5.33333 34.6667C5.32887 38.1692 6.0166 41.6382 7.35702 44.8741C8.69743 48.11 10.6641 51.0492 13.144 53.5227L16.9147 49.752C14.434 47.2712 12.6035 44.217 11.5852 40.8598C10.5668 37.5026 10.3922 33.9461 11.0766 30.5053C11.7611 27.0645 13.2835 23.8456 15.5091 21.1337C17.7347 18.4218 20.5948 16.3006 23.836 14.9581C27.0772 13.6155 30.5994 13.093 34.0908 13.4368C37.5821 13.7806 40.9348 14.9802 43.8518 16.9292C46.7688 18.8782 49.1602 21.5165 50.814 24.6104C52.4679 27.7044 53.3332 31.1584 53.3333 34.6667ZM40.7813 22.1147L28 33.3333L33.3333 38.6667L44.552 25.8853L40.7813 22.1147Z" fill="currentColor"/>
</svg>
