<svg width="25" height="25" viewBox="0 0 25 25" fill="none" xmlns="http://www.w3.org/2000/svg">
<path d="M10.5 6.5V8.5H5.5V19.5H16.5V14.5H18.5V20.5C18.5 20.7652 18.3946 21.0196 18.2071 21.2071C18.0196 21.3946 17.7652 21.5 17.5 21.5H4.5C4.23478 21.5 3.98043 21.3946 3.79289 21.2071C3.60536 21.0196 3.5 20.7652 3.5 20.5V7.5C3.5 7.23478 3.60536 6.98043 3.79289 6.79289C3.98043 6.60536 4.23478 6.5 4.5 6.5H10.5ZM21.5 3.5V11.5H19.5V6.913L11.707 14.707L10.293 13.293L18.085 5.5H13.5V3.5H21.5Z" fill="black"/>
</svg>
