<svg width="24" height="25" viewBox="0 0 24 25" fill="none" xmlns="http://www.w3.org/2000/svg">
<path d="M5.88399 19.153C5.58399 18.953 5.32599 18.698 5.02399 18.337C4.86724 18.1451 4.71191 17.9521 4.55799 17.758C4.09499 17.183 3.80299 16.917 3.50199 16.808C3.37534 16.7661 3.25836 16.6992 3.15794 16.6114C3.05751 16.5236 2.97567 16.4166 2.91723 16.2967C2.8588 16.1767 2.82495 16.0463 2.81768 15.9131C2.81041 15.7799 2.82987 15.6466 2.8749 15.521C2.91994 15.3954 2.98965 15.2802 3.07992 15.1819C3.1702 15.0837 3.27921 15.0045 3.40055 14.9491C3.52188 14.8936 3.65309 14.863 3.78643 14.8591C3.91978 14.8551 4.05257 14.8778 4.17699 14.926C4.92899 15.196 5.43799 15.661 6.12399 16.514C6.02999 16.397 6.46399 16.941 6.55699 17.053C6.74699 17.28 6.88699 17.418 6.99699 17.491C7.20099 17.628 7.58499 17.687 8.14699 17.631C8.17099 17.249 8.24099 16.878 8.34899 16.536C5.38099 15.81 3.70099 13.896 3.70099 10.14C3.70099 8.89998 4.07099 7.78398 4.75899 6.84798C4.54099 5.95398 4.57399 4.87298 5.06099 3.65598C5.11626 3.51831 5.20146 3.39467 5.31043 3.29401C5.41939 3.19335 5.54939 3.11819 5.69099 3.07398C5.77199 3.04998 5.81799 3.03898 5.89899 3.02698C6.70199 2.90298 7.83599 3.19698 9.31399 4.12298C10.1948 3.91705 11.0964 3.8137 12.001 3.81498C12.913 3.81498 13.82 3.91898 14.685 4.12298C16.162 3.18998 17.299 2.89598 18.107 3.02698C18.192 3.03998 18.265 3.05698 18.325 3.07698C18.4638 3.12276 18.5909 3.19841 18.6974 3.29862C18.8038 3.39883 18.8869 3.52116 18.941 3.65698C19.428 4.87298 19.461 5.95298 19.243 6.84698C19.934 7.78298 20.301 8.89198 20.301 10.14C20.301 13.897 18.627 15.805 15.659 16.532C15.784 16.947 15.849 17.41 15.849 17.912C15.849 18.577 15.847 19.211 15.842 19.922C15.842 20.112 15.84 20.316 15.837 20.628C16.0616 20.6769 16.2625 20.8016 16.4059 20.9813C16.5493 21.1609 16.6264 21.3845 16.6243 21.6143C16.6222 21.8441 16.541 22.0662 16.3943 22.2432C16.2476 22.4202 16.0445 22.5412 15.819 22.586C14.679 22.813 13.835 22.054 13.835 21.061L13.837 20.614L13.842 19.909C13.847 19.202 13.85 18.572 13.85 17.912C13.85 17.215 13.666 16.76 13.424 16.551C12.763 15.981 13.098 14.897 13.965 14.8C16.931 14.467 18.301 13.318 18.301 10.14C18.301 9.18498 17.989 8.39598 17.388 7.73598C17.2615 7.59692 17.1768 7.42503 17.1435 7.24002C17.1103 7.05501 17.1299 6.86438 17.2 6.68998C17.366 6.27598 17.436 5.73298 17.295 5.07598L17.285 5.07898C16.794 5.21798 16.175 5.51898 15.427 6.02798C15.3064 6.10983 15.1693 6.16433 15.0254 6.18765C14.8815 6.21097 14.7343 6.20255 14.594 6.16298C13.7499 5.92927 12.8778 5.81185 12.002 5.81398C11.112 5.81398 10.23 5.93198 9.40999 6.16398C9.27036 6.20308 9.12389 6.21135 8.98075 6.18822C8.8376 6.16508 8.7012 6.11108 8.58099 6.02998C7.82799 5.52298 7.20699 5.22298 6.71099 5.08298C6.56799 5.73598 6.63899 6.27698 6.80399 6.68998C6.8738 6.86434 6.8931 7.05483 6.85967 7.23964C6.82625 7.42445 6.74145 7.59612 6.61499 7.73498C6.01799 8.38998 5.70199 9.19298 5.70199 10.139C5.70199 13.311 7.07299 14.467 10.024 14.799C10.889 14.896 11.226 15.976 10.569 16.547C10.376 16.715 10.139 17.279 10.139 17.911V21.061C10.139 22.046 9.30499 22.786 8.17899 22.589C7.95076 22.5489 7.74353 22.4308 7.59271 22.2549C7.44189 22.079 7.35686 21.8561 7.35214 21.6244C7.34741 21.3928 7.42329 21.1666 7.56681 20.9847C7.71033 20.8028 7.91258 20.6763 8.13899 20.627V19.637C7.22899 19.698 6.47799 19.549 5.88499 19.152" fill="currentColor"/>
</svg>
