<svg width="35" height="55" viewBox="0 0 35 55" fill="none" xmlns="http://www.w3.org/2000/svg">
<path d="M6.305 7.885C6.845 7.885 7.265 8.26 7.565 9.01C6.275 12.43 5.63 16.885 5.63 22.375V27.28H5.72C7.4 25.6 9.995 20.41 13.505 11.71C14.405 10.57 15.095 10 15.575 10H15.755C16.265 10 16.67 10.285 16.97 10.855V11.71C16.13 12.22 14.075 16.465 10.805 24.445L7.115 29.98V30.07C10.505 33.58 14.03 35.335 17.69 35.335H19.4C20.51 35.335 21.26 35.23 21.65 35.02C22.46 35.35 22.865 35.83 22.865 36.46V36.82C22.865 37.57 21.56 37.945 18.95 37.945H18.275C13.985 37.945 9.89 36.175 5.99 32.635H5.72V37.855C5.72 38.875 5.255 39.385 4.325 39.385C3.485 39.385 3.065 38.875 3.065 37.855V32.5C1.955 31.66 1.4 30.76 1.4 29.8C1.4 28.99 1.91 28.585 2.93 28.585V22.195C2.93 16.375 3.68 11.755 5.18 8.335C5.57 8.035 5.945 7.885 6.305 7.885Z" fill="#1ec2cc"/>
<path d="M19.955 21.935C21.005 21.935 21.53 23.765 21.53 27.425L21.8 34.445H21.89L29.09 31.655C29.81 25.535 30.47 22.475 31.07 22.475L31.655 22.385C32.165 22.385 32.63 22.79 33.05 23.6C32 28.76 31.475 33.23 31.475 37.01V38.945C31.475 41.705 32.135 44.33 33.455 46.82C33.155 47.66 32.675 48.08 32.015 48.08C30.575 48.08 29.51 45.17 28.82 39.35V34.76H28.55C24.05 36.35 21.8 37.37 21.8 37.82C21.8 44.96 21.14 48.53 19.82 48.53H19.64C19.01 48.53 18.605 48.005 18.425 46.955C18.875 43.685 19.1 41.15 19.1 39.35L17.12 40.385L16.715 40.475C15.965 40.205 15.59 39.74 15.59 39.08C15.59 38.42 16.76 37.385 19.1 35.975V35.885C19.01 30.725 18.815 26.45 18.515 23.06C18.515 22.4 18.995 22.025 19.955 21.935Z" fill="#1ec2cc"/>
</svg>
